<svg xmlns="http://www.w3.org/2000/svg" viewBox="0 0 314.29 138.98"><defs><style>.cls-1{fill:#fff;}.cls-2{fill:#1d1d1b;stroke:#fff;stroke-miterlimit:10;stroke-width:0.25px;}.cls-3,.cls-4{fill:#d4d7dd;}.cls-4{font-size:20.61px;font-family:BellMTItalic, Bell MT;}.cls-5{letter-spacing:-0.09em;}.cls-6{letter-spacing:-0.01em;}</style></defs><title>logo</title><g id="Capa_1" data-name="Capa 1"><path class="cls-1" d="M170.74,79.77c-8.09-2-14.46-6.2-17.89-13.58-7.14-15.33-2.39-35.73,17.22-40.69,8.83-2.23,16.48,1.19,23.38,6.88,13.41,11.06,10.17,37.75-4.94,44.66a25.34,25.34,0,0,1-8.71,2.54c-2.74.2-5,1.39-7.33,2.68,4.81,0,9.17,2.18,13.9,2.16,3.28,0,6-.74,7.73-3.86.48-.9,1.11-2,2.3-1.45s.54,1.73.28,2.68c-2.54,9.36-10.88,12.84-20.74,8.59-2.69-1.16-5.31-2.5-7.93-3.84-2.18-1.12-3.67-1-4.07,1.83-.2,1.41-.57,2.86-2.17,3.29-1.21.32-1.81-.63-2.35-1.54-1-1.77-.34-3.32.88-4.51C163.1,82.89,167.14,82.31,170.74,79.77Zm22.52-26.91a32.67,32.67,0,0,0-3.13-15.63c-2.75-6.23-7.74-9.7-14.39-9.55s-11.41,4.12-14,10.22c-4.49,10.39-4.11,20.62.43,31.07,4,9.07,15.6,10.3,21.62,6.09C191.5,69.63,193,61.49,193.26,52.86Z"/><path class="cls-1" d="M107.27,66.08c0-11.27.08-21.48,0-31.69,0-2.95-1-5.65-4.82-5.67-.9,0-1.9-.32-1.85-1.48s1.15-1.18,2-1.18c4,0,7.93,0,11.89,0,1,0,2.26-.08,2.33,1.35,0,1.18-1,1.33-1.93,1.36-3.78.11-4.58,2.5-4.57,5.7q0,20.53,0,41.06c0,1.3.72,3.14-1,3.77-1.87.71-2.51-1.2-3.48-2.33q-5.13-5.89-10.35-11.73Q82.91,51.05,70.29,36.9c-.21-.24-.62-.3-1.2-.57,0,11.8,0,23.37,0,35a12.4,12.4,0,0,0,.38,1.48c.32,2.32,1.43,3.77,4,3.8.86,0,2-.11,2.06,1.14s-1.17,1.14-2,1.15c-4.09,0-8.18,0-12.27,0-.75,0-1.74.07-1.8-.95s.78-1.3,1.59-1.29c4.56,0,4.73-3.54,4.78-6.44.22-12,.15-24,.12-36.07,0-3.16-2.58-4.13-4.92-5.19-.79-.36-1.9-.48-1.7-1.68s1.25-1.1,2.13-1.17c5.9-.5,10.64.33,15,5.67C85.91,43.37,96.44,54.16,107.27,66.08Z"/><path class="cls-1" d="M286.12,78.89c-5.88,0-11.76,0-17.64,0-1,0-2.66.53-2.7-1.21,0-1.47,1.51-1,2.41-1.18,2-.44,2.66-1.76,2.66-3.64q0-20.32,0-40.65c0-2-.76-3.13-2.82-3.31-1-.08-2.3-.06-2.26-1.47s1.34-1.34,2.34-1.34q16.88,0,33.75,0a2.52,2.52,0,0,1,2.72,1.67c1,3.16,2,6.33,2.85,9.52a1.65,1.65,0,0,1-.36,1.36,1.17,1.17,0,0,1-1.71-.18,18.87,18.87,0,0,1-2.06-2.74c-3.06-5.22-7.77-6.91-13.56-6.89-10.47,0-10.47-.07-10.47,10.26,0,2.94,0,5.88,0,8.82,0,1-.18,2,1.07,2.61,2.12,1,10-.15,11.82-1.78a7.84,7.84,0,0,0,2.52-5.42c.06-.78.43-1.63,1.34-1.54s.88,1.11.88,1.84c0,5.62,0,11.25,0,16.87,0,.72.14,1.77-.85,1.85-1.16.1-1.21-1-1.45-1.87-1.5-5.24-8.72-8.78-14-7-1.3.45-1.32,1.4-1.32,2.42,0,5.24-.1,10.49,0,15.73.09,3.31,1.73,5.19,5.37,4.91a61.65,61.65,0,0,1,6.52,0c6.09.16,10.4-2.57,13.58-7.7,1-1.57,1.9-4.8,3.91-4,2.54,1.06.45,4,0,5.79-2.17,9.49.41,8.13-10,8.23C294.56,78.93,290.34,78.9,286.12,78.89Z"/><path class="cls-1" d="M9.11,47.59c0-4.73-.08-9.46,0-14.19.06-2.49-.47-4.27-3.32-4.57C5,28.74,3.89,28.54,4,27.33s1.16-1.25,2.05-1.26q7.67,0,15.33,0c.89,0,1.94.13,2,1.32s-1,1.42-1.91,1.37c-3.39-.22-4,1.69-4,4.57.09,10.09,0,20.19,0,30.28,0,7.53,4.56,12.67,12.33,13.52,6,.66,12.79-1.91,14.89-9.24A25.43,25.43,0,0,0,46,60.78c0-8.69,0-17.38,0-26.07,0-3.05-.13-6.07-4.54-5.79a1.51,1.51,0,0,1-1.64-1.72C40,26,41,26.06,41.92,26.06c3.7,0,7.41,0,11.11,0,.91,0,1.89,0,2,1.24.1.95-.52,1.42-1.38,1.47-4.34.26-4.57,3.5-4.61,6.62-.11,8.94.06,17.89-.12,26.83-.13,6.33-2.43,11.66-8.12,15.13C34.44,81.24,20.74,80.45,15,75.8c-4.62-3.73-5.59-9-5.83-14.42-.21-4.59-.05-9.19-.05-13.79Z"/><path class="cls-1" d="M213.82,49.37c0-4.6.08-9.2,0-13.8-.07-3.15.26-6.69-4.42-7a1.12,1.12,0,0,1-1.13-1.28,1.28,1.28,0,0,1,1.36-1.1q8.25-.06,16.49,0c.72,0,1.6.26,1.63,1.26s-.82,1.34-1.55,1.32c-4.37-.13-4.43,2.74-4.4,5.93q.1,13.81,0,27.62c-.05,5,1.22,9.41,5.38,12.48,4.32,3.2,9.22,3.09,14.06,1.59a11.54,11.54,0,0,0,8-8.49c1.87-7,.78-14.24,1-21.37.12-4.09-.09-8.19.05-12.27.11-3.22-1-5.19-4.42-5.39-1,0-2.31,0-2.19-1.48s1.41-1.27,2.41-1.28q5.76,0,11.51,0c.89,0,1.94.07,2.11,1.21s-.87,1.43-1.76,1.52c-3.5.33-4.24,2.52-4.21,5.62.11,8.57,0,17.13,0,25.7,0,11.06-7.07,20.49-19.34,19.61-2.42-.17-4.91.11-7.26-.35-8.4-1.61-13-7.14-13.26-15.8-.14-4.73,0-9.47,0-14.2Z"/><path class="cls-1" d="M156.43,85.67a1.28,1.28,0,0,1,0-.19q-71.61,0-143.23,0c-1.4,0-4-1-4,1.22s2.61,1.17,4,1.17Q84.16,88,155,88h.61A5,5,0,0,1,156.43,85.67Z"/><path class="cls-1" d="M303.9,85.33q-52.12,0-104.26,0a10.43,10.43,0,0,1-1.83,2q53.07,0,106.15,0c1.47,0,4.18.73,4.19-.83C308.15,84.46,305.4,85.33,303.9,85.33Z"/><path class="cls-1" d="M132.89,78.85c-2.81,0-5.62,0-8.43,0-.78,0-1.64-.17-1.63-1.19s.89-1.17,1.66-1.1c3.8.32,4.14-2.41,4.16-5,.08-12.77,0-25.55,0-38.33,0-2.59-.89-4.52-4-4.41-.9,0-1.93-.12-1.94-1.32,0-1.49,1.23-1.42,2.23-1.42q7.86,0,15.72,0c1,0,2.31,0,2.28,1.39s-1.33,1.39-2.33,1.35c-3-.11-3.51,1.65-3.5,4.19.06,13.16.08,26.32,0,39.48,0,2.86.79,4.42,3.93,4.06.87-.1,2,0,2,1.2s-1.2,1.12-2.08,1.12c-2.68,0-5.37,0-8.05,0Z"/><path class="cls-2" d="M194.14,52.62a30.11,30.11,0,0,1-5.07,17.91c-7.16,10.51-19.69,10.57-26.41-.17-7.31-11.7-7.08-23.73-.16-35.6a18.37,18.37,0,0,1,3.8-4.36c5.85-5.12,13.5-5.1,19.27.1,5.93,5.35,7.93,12,8.56,19.16C194.21,50.64,194.14,51.63,194.14,52.62Zm-35.46.05c.11,6.57,1.6,12.85,5.85,18.46,6.2,8.18,15.74,8.34,22.34.42,8.21-9.87,8.29-28,.15-37.89-6.53-7.94-15.61-8-22.18,0C160.16,39.3,158.78,45.86,158.68,52.67Z"/><path class="cls-2" d="M159.46,37.7c-2.21,4.61-3.74,9.39-3.4,14.37.19,2.7-1.31,4.79-2.12,7.14-.54,1.57-.83,3.21-1.23,4.76l2.76-.21a6.61,6.61,0,0,1,0,1.19c-.9.12-2.44.4-2.62.1-.77-1.25-1.68-2.73-1.5-4,.2-1.56,1.46-3,2.23-4.47H148c-.13-1.27-.26-2.55-.4-4,.13-1,.31-2.22.51-3.62h5.39a37.1,37.1,0,0,1-2.22-4.22,3.21,3.21,0,0,1,1.94-4.47c.56-.23,1.56.2,2.31.44.13,0,.05,1,0,1-.7.07-1.41,0-2.77,0,.61,2.22,1.29,4.65,2.09,7.53,1.36-3,.95-4.72-1.39-6.31a6.68,6.68,0,0,0,2.16-.19c.57-.32,1.22-.93,1.27-1.45s-.56-1.5-1-1.53c-1.48-.13-2.09-.85-1.51-1.79a13.75,13.75,0,0,1,2.7-2.55c.64.58,1.3,1.15,1.94,1.74a6.12,6.12,0,0,1,.45.56Zm-6.77,12.51-2.77,2c2.4.44-.22,1-.39,1.67L154.38,51Z"/><path class="cls-2" d="M196.4,56.48l-.31,1.35-.39,0V47.68L197,48.76l2-7.24-2.81.25a5.06,5.06,0,0,1,0-1.16c.87-.14,2.36-.45,2.56-.15.8,1.15,1.75,2.55,1.6,3.76-.22,1.64-1.4,3.18-2.17,4.77h5.78c.18,1.26-2.15,3,1.67,3.74-3.66.87-1.65,2.54-1.62,3.81h-5.8c.8,1.61,1.95,3,2.08,4.5.11,1.31-.77,2.76-1.54,4-.16.27-1.7,0-2.58-.17-.11,0-.09-.65-.13-1h2.94c-.72-2.46-1.47-5-2.21-7.47Zm2.76-1.09,2.83-2.2-4.56.87.09.71Z"/><path class="cls-2" d="M190.91,33.92l3.58-.37-2.14,2.14c1.18,0,2.37-.29,3.15.08a3.82,3.82,0,0,1,1.76,2.13c.17.48-.45,1.23-.87,1.77a20.06,20.06,0,0,1-1.69,1.77c.78.44,1.53.9,2.33,1.31a2.76,2.76,0,0,0,.83.14l-2.29,3.47C194,42.25,192.5,38.18,190.91,33.92Z"/><path class="cls-2" d="M158.78,67.08l-2.17.55a7.08,7.08,0,0,1,1.72.74c1.09.88,2.07,1.87,3.35,3.06l-4,.75,1.39-2.32c-2.56.45-4.19-.27-4.65-2.2-.12-.49.24-1.53.45-1.54,1.91-.14,2.65-1.11,1.93-2.41-.36-.66-1.81-.9-2.88-1.38,2.14-1.21,2.22-3.18,2-5.39Z"/><path class="cls-2" d="M191.94,68.54a11,11,0,0,0,1.3-.2c.64-.17,1.26-.38,1.88-.57L193,66.89l2.36-7.68h.7c.08.71.16,1.42.25,2.2l1.87.8-.1.42a4.24,4.24,0,0,0-1.56,0c-.68.33-1.6.82-1.72,1.36s.46,1.32.93,1.88,1.74,1.19,1.65,1.36a7.84,7.84,0,0,1-2.28,2.62c-.34.23-1.57-.47-2.37-.8a4.09,4.09,0,0,1-.81-.57Z"/><path class="cls-2" d="M159.49,37.73c-.48-1.3-1-2.59-1.51-4.11,3,1.08,3.32-1,4.27-2.52a5.06,5.06,0,0,1,2.36-1.84c-1.72,2.81-3.44,5.61-5.16,8.43Z"/><path class="cls-2" d="M191.9,68.52l1.86,3c0-.11,0,.16-.07.15-3.12-.65-3.52,1.48-4.51,3.11a3.71,3.71,0,0,1-2,1.35q2.42-3.8,4.82-7.61Z"/><path class="cls-1" d="M174.83,50.24A17.56,17.56,0,0,0,173.15,48a6.43,6.43,0,0,1-1.82-7.06,4.4,4.4,0,0,1,4.18-3.18,4.65,4.65,0,0,1,4.74,2.57,6.34,6.34,0,0,1-1,7.06c-.79.91-1.5,1.89-2.22,2.82,2.28,2.15,2.3,2.08,4.8,1.07a11.85,11.85,0,0,1,3.84-.87,2.12,2.12,0,1,1,0,4.2,8,8,0,0,1-3.69-.84c-2-1.17-3.38-.73-4.9,1a16.89,16.89,0,0,0,1.67,2.29,6.6,6.6,0,0,1,2.09,5.7,4.9,4.9,0,0,1-5.05,4.49A4.85,4.85,0,0,1,171,62.68,6.68,6.68,0,0,1,173.17,57a17.22,17.22,0,0,0,1.63-2.21c-2.17-2.13-2.25-2.07-4.72-1.08a11.93,11.93,0,0,1-3.84.89,2.23,2.23,0,0,1-2.43-2.12,2.25,2.25,0,0,1,2.44-2.1,8,8,0,0,1,3.69.87C171.86,52.46,173.23,51.86,174.83,50.24Zm3.23-5c-.07-.64.06-1.39-.25-1.84-.44-.63-1.2-1.41-1.84-1.43s-1.81.8-1.85,1.32a18.9,18.9,0,0,0,.37,4.91c.09.49,1.07,1.24,1.44,1.14a2.79,2.79,0,0,0,1.58-1.46A10.77,10.77,0,0,0,178.06,45.27Zm-4.28,14.6h.09c0,.29,0,.57,0,.86.11,1.5.91,2.4,2.12,2.37s1.95-.86,2-2.34a12.07,12.07,0,0,0-.45-3.65,2.47,2.47,0,0,0-1.64-1.47c-.47,0-1.26.82-1.53,1.44A12.46,12.46,0,0,0,173.78,59.87Zm-.65-13.08a16.86,16.86,0,0,1,.31-3.95,3.29,3.29,0,0,1,2-1.88,2.79,2.79,0,0,1,2.41.93,9,9,0,0,1,.84,3.34,6.74,6.74,0,0,1-.23,1.78,4.68,4.68,0,0,0,.23-6.5,4,4,0,0,0-5.55,0C171.66,42,171.34,45.4,173.13,46.79ZM173.26,58c-1.9,2.33-1.7,5.38.31,6.9a3.92,3.92,0,0,0,5.48-.78c1.38-1.89,1.14-4.77-.49-5.92.29,4.23-.42,5.94-2.5,6S173.19,62.8,173.26,58Zm7.36-5.8,0,.64A41.34,41.34,0,0,0,184.9,54c1.26.22,2.19-.58,2.09-1.55A1.58,1.58,0,0,0,185,51C183.49,51.26,182.06,51.77,180.62,52.17Zm-9.41.61,0-.54a28.38,28.38,0,0,0-4-1.2,3.3,3.3,0,0,0-2.09.8,1.46,1.46,0,0,0,0,1.39,3.48,3.48,0,0,0,2.14.73A27.55,27.55,0,0,0,171.21,52.78ZM174.87,51l-2.07,1.41,0,.45c.87.26,2.11,1,2.55.67C176.17,52.91,175.61,51.86,174.87,51Zm4.31,1.48L177,51A1.78,1.78,0,0,0,177,54Z"/><path class="cls-1" d="M169.47,47.55l-.92-2.87.26-.07,2.76,5.15-.87-.58a6,6,0,0,0-6.85.09,3.84,3.84,0,0,0,.05,6.5,5.87,5.87,0,0,0,6.95-.08c.22-.16.45-.3.76-.51l-2.76,5.1-.23,0,.84-2.83a32.68,32.68,0,0,1-5.22-.79,4.25,4.25,0,0,1,0-8.28A33.64,33.64,0,0,1,169.47,47.55Z"/><path class="cls-1" d="M180.41,49.52l2.65-4.85.22,0-.9,2.84a33.82,33.82,0,0,1,5.24.81,4.25,4.25,0,0,1,3.26,4.09,4.2,4.2,0,0,1-3.18,4.14,32.13,32.13,0,0,1-5.33.84l.92,2.79-.25.08-2.52-4.63a16.72,16.72,0,0,0,4,1.13c3.08.14,5.42-2.11,5.21-4.64s-3.29-4.56-6.16-3.94A18,18,0,0,0,180.41,49.52Z"/><path class="cls-3" d="M61.55,104.13c-1.1.08-1.91.39-1.77,1.31A2.56,2.56,0,0,0,61,107.09a2.3,2.3,0,0,0,2.92-.86,2.68,2.68,0,0,0-.11-3.3,2.47,2.47,0,0,0-3.28-.85c-2,1.12-3.92.66-5.84-.17a6.25,6.25,0,0,1-.81-.5c2.17-1.11,4.16-1.81,6.38-.69a2.82,2.82,0,0,0,4-3.25,2.47,2.47,0,0,0-3.43-1.63,2.43,2.43,0,0,0-1.06,1.75c0,.42.79.89,1.23,1.34l.38-.31c-.08-.2-.24-.42-.21-.61a2.65,2.65,0,0,1,.37-1.21,1,1,0,0,1,1,.15,1.7,1.7,0,0,1,.28,1.25,1.86,1.86,0,0,1-2.54,1,1.89,1.89,0,0,1-1.08-2.51,2.82,2.82,0,0,1,3.39-1.54A2.85,2.85,0,0,1,65,98.41a16.14,16.14,0,0,1-1.67,3.28s.36.28.66.56a3.37,3.37,0,0,1,.45,4.4,3.17,3.17,0,0,1-4.11.8c-.9-.58-1.53-1.48-1-2.46a2.81,2.81,0,0,1,1.89-1.34c.53-.07,1.24.62,1.72,1.12.16.18-.06.89-.3,1.2a1,1,0,0,1-1,.09,2.5,2.5,0,0,1-.32-1.21C61.23,104.68,61.39,104.49,61.55,104.13Z"/><path class="cls-3" d="M67.82,101.78c-.5.33-1,.88-1.52.93-.81.08-1.31-.51-1.25-1.38s.59-1.3,1.35-1.11c.53.13,1,.66,1.45,1Z"/><text class="cls-4" transform="translate(69.6 108.43)"><tspan class="cls-5">T</tspan><tspan x="12.81" y="0">eso</tspan><tspan class="cls-6" x="34.93" y="0">r</tspan><tspan x="42.38" y="0">os y Antiguedades</tspan></text><path class="cls-3" d="M259.7,104.13c1.09.08,1.9.39,1.76,1.31a2.56,2.56,0,0,1-1.23,1.64,2.28,2.28,0,0,1-2.92-.85,2.69,2.69,0,0,1,.11-3.31,2.46,2.46,0,0,1,3.27-.84c2,1.12,3.92.66,5.85-.17a6.67,6.67,0,0,0,.8-.51c-2.16-1.1-4.16-1.8-6.38-.69a2.63,2.63,0,0,1-3.18-.36,2.68,2.68,0,0,1-.86-2.88,2.47,2.47,0,0,1,3.43-1.63,2.42,2.42,0,0,1,1.07,1.75c0,.42-.79.89-1.23,1.34l-.38-.31c.07-.2.23-.42.2-.61a2.53,2.53,0,0,0-.37-1.21c-.11-.14-.83,0-1,.15a1.66,1.66,0,0,0-.29,1.25,1.86,1.86,0,0,0,2.54,1A1.89,1.89,0,0,0,262,96.64a3,3,0,0,0-5.71,1.76,16,16,0,0,0,1.67,3.29s-.36.28-.65.56a3.36,3.36,0,0,0-.45,4.4,3.18,3.18,0,0,0,4.11.8c.89-.58,1.52-1.48,1-2.46a2.83,2.83,0,0,0-1.89-1.34c-.53-.07-1.25.62-1.72,1.12-.17.18.05.89.3,1.2a1,1,0,0,0,1,.09,2.51,2.51,0,0,0,.33-1.21C260,104.68,259.85,104.48,259.7,104.13Z"/><path class="cls-3" d="M253.42,101.78c.51.33,1,.88,1.52.93.81.08,1.32-.52,1.25-1.38s-.59-1.3-1.35-1.11c-.53.13-1,.66-1.44,1Z"/></g></svg>